<?xml version="1.0" standalone="no"?>
<!DOCTYPE svg PUBLIC "-//W3C//DTD SVG 20010904//EN"
 "http://www.w3.org/TR/2001/REC-SVG-20010904/DTD/svg10.dtd">
<svg version="1.0" xmlns="http://www.w3.org/2000/svg"
 width="300.000000pt" height="300.000000pt" viewBox="0 0 300.000000 300.000000"
 preserveAspectRatio="xMidYMid meet">
<metadata>
Created by potrace 1.10, written by Peter Selinger 2001-2011
</metadata>
<g transform="translate(0.000000,300.000000) scale(0.100000,-0.100000)"
fill="#000000" stroke="none">
<path d="M2551 2933 c-20 -21 -67 -74 -106 -117 -83 -94 -118 -129 -165 -165
-19 -14 -37 -29 -40 -32 -22 -28 -197 -86 -225 -75 -8 3 -17 1 -20 -4 -8 -13
-52 -13 -57 1 -2 6 -12 7 -28 1 -26 -10 -89 4 -102 23 -4 5 -8 26 -8 46 0 70
-96 170 -178 185 -18 3 -35 10 -38 15 -3 5 -56 9 -118 9 -142 0 -161 -11 -219
-122 -38 -72 -52 -87 -96 -94 -7 -2 -39 -16 -70 -33 -118 -63 -176 -72 -277
-46 -67 17 -184 74 -191 92 -3 7 -9 13 -14 13 -4 0 -25 11 -45 25 -45 31 -52
31 -85 2 -22 -19 -125 -190 -155 -257 -19 -42 -37 -85 -39 -90 -1 -3 -5 -12
-8 -20 -13 -30 -66 -267 -76 -343 -20 -141 -10 -438 15 -478 3 -5 7 -19 9 -31
3 -12 10 -26 16 -32 9 -8 10 -6 5 9 -4 11 -14 69 -23 130 -38 272 19 608 147
865 52 105 134 240 145 240 6 0 35 -18 65 -41 85 -64 128 -86 220 -112 72 -21
94 -24 135 -16 61 11 141 41 186 68 19 12 55 24 82 27 26 4 47 11 47 16 0 5 4
7 9 3 5 -3 12 4 16 15 3 11 10 20 14 20 4 0 8 7 8 15 0 21 -15 19 -22 -4 -3
-11 -18 -27 -33 -37 -24 -16 -24 -14 8 27 19 24 44 52 55 62 11 10 14 16 8 12
-24 -12 -14 25 13 50 31 29 91 39 182 32 92 -7 172 -39 226 -92 43 -41 45 -46
48 -106 3 -63 3 -63 38 -72 19 -5 82 -7 140 -4 125 5 204 31 314 104 70 47
242 210 304 288 l32 40 25 -30 c79 -95 182 -330 220 -504 59 -260 53 -470 -21
-763 -53 -211 -164 -447 -288 -611 -209 -276 -392 -446 -686 -635 l-115 -74
-5 79 c-5 77 -5 78 -12 28 -4 -27 -9 -57 -13 -66 -3 -9 3 -26 14 -40 19 -23
19 -23 55 -6 101 48 303 188 421 293 303 268 522 583 620 893 14 44 30 83 35
86 6 4 8 10 5 15 -3 5 1 39 10 75 8 36 17 80 20 98 3 17 10 57 15 87 11 62 19
360 9 360 -3 0 -7 24 -9 53 -1 28 -3 60 -3 70 -1 9 -5 17 -10 17 -4 0 -5 5 -2
10 4 6 2 16 -3 23 -8 11 -14 34 -29 111 -6 32 -52 156 -78 214 -14 29 -25 57
-25 62 0 6 -4 10 -8 10 -4 0 -14 16 -21 35 -7 19 -16 35 -21 35 -5 0 -11 9
-15 20 -9 27 -63 80 -82 80 -8 0 -32 -17 -52 -37z"/>
<path d="M1409 2749 c-1 -13 -1 -27 0 -31 0 -5 -3 -8 -9 -8 -5 0 -10 -8 -9
-17 0 -11 3 -13 6 -5 2 6 14 12 26 12 18 0 19 2 7 10 -11 7 -2 9 30 9 35 -1
39 -3 20 -8 -16 -4 -21 -10 -13 -14 15 -9 60 11 68 31 9 23 -5 31 -68 38 -55
7 -57 6 -58 -17z"/>
<path d="M1515 2680 c5 -15 2 -18 -15 -15 -11 2 -18 0 -15 -6 4 -5 10 -7 15
-4 5 3 11 2 14 -3 3 -5 0 -9 -7 -10 -7 -1 -50 -5 -97 -10 -47 -5 -79 -10 -72
-11 18 -2 15 -19 -5 -24 -10 -3 18 -5 62 -5 49 0 72 2 60 7 -11 5 -27 6 -35 3
-11 -4 -12 -2 -4 7 6 6 34 14 62 18 51 6 52 6 52 39 0 19 -5 34 -11 34 -6 0
-8 -8 -4 -20z"/>
<path d="M1577 2693 c-4 -3 -7 -23 -7 -44 0 -32 5 -41 30 -54 34 -18 70 -20
70 -4 0 22 -33 80 -54 94 -23 17 -30 18 -39 8z m47 -38 c32 -34 38 -61 15 -61
-10 0 -16 2 -14 5 3 2 -5 9 -18 15 -13 7 -23 23 -25 39 -4 34 12 35 42 2z"/>
<path d="M2330 2634 c-80 -61 -193 -120 -247 -130 -23 -4 -33 -12 -33 -25 0
-21 16 -34 25 -19 4 6 12 8 18 4 7 -3 4 1 -5 8 -15 13 -10 17 47 35 47 15 66
18 76 9 9 -8 10 -8 6 0 -7 12 36 29 63 25 10 -2 9 2 -5 14 -16 13 -16 16 -3
11 12 -3 15 -1 11 10 -3 8 -2 14 3 12 13 -4 54 21 79 48 28 31 68 27 73 -6 3
-20 1 -22 -24 -16 l-28 7 25 -19 c17 -15 26 -17 32 -9 6 9 10 9 14 -1 2 -6 10
-9 16 -5 7 3 9 3 5 -2 -4 -4 -3 -15 2 -24 5 -10 5 -23 1 -30 -5 -8 3 -36 22
-71 27 -54 28 -60 13 -75 -21 -22 -20 -28 4 -22 13 3 20 0 20 -9 0 -8 5 -14
10 -14 5 0 9 -3 8 -7 -1 -5 2 -21 7 -36 9 -34 1 -45 -20 -27 -26 22 -29 3 -3
-22 28 -27 30 -52 5 -70 -17 -13 -17 -16 12 -52 l31 -39 0 57 c0 32 4 55 8 52
4 -2 6 11 4 30 -2 18 -8 32 -12 29 -5 -3 -6 4 -3 14 12 48 -94 360 -118 345
-5 -3 -6 1 -4 9 7 15 -31 67 -48 67 -7 0 -46 -25 -87 -56z"/>
<path d="M1384 2661 c-5 -5 -20 -11 -34 -14 -14 -2 0 -5 30 -5 30 0 48 2 40 5
-8 3 -18 10 -21 14 -3 5 -9 5 -15 0z"/>
<path d="M530 2588 c0 -22 14 -34 38 -34 12 0 22 1 22 1 0 1 -13 11 -30 23
-19 15 -30 18 -30 10z"/>
<path d="M2374 2581 c3 -5 -1 -11 -9 -15 -22 -8 -18 -33 5 -39 11 -3 20 -1 20
5 0 6 8 7 17 4 10 -4 14 -4 10 0 -4 4 -2 13 4 20 8 10 5 12 -15 8 -20 -3 -24
-1 -20 11 4 8 1 15 -6 15 -6 0 -9 -4 -6 -9z"/>
<path d="M1270 2565 c-51 -13 -70 -45 -26 -45 14 0 64 -20 111 -44 46 -25 87
-41 90 -35 4 5 0 9 -8 9 -8 0 -26 10 -41 23 l-27 23 30 -2 c16 -1 35 -5 43
-10 10 -6 9 -4 -1 10 -8 9 -20 15 -28 12 -18 -7 -44 4 -37 15 11 18 -29 22
-42 5 -13 -19 -34 -14 -34 8 0 11 22 14 90 14 82 0 90 -1 96 -21 7 -23 34 -54
34 -40 0 5 -8 19 -17 33 -16 22 -16 23 1 17 10 -4 22 -7 27 -7 4 0 6 -6 3 -13
-3 -8 3 -23 13 -33 10 -11 14 -14 9 -7 -5 8 -4 13 2 13 11 0 26 -18 28 -35 0
-5 2 -19 2 -29 2 -14 5 -17 12 -10 7 7 8 19 1 37 -12 32 3 46 20 18 7 -10 19
-17 26 -14 7 3 13 1 13 -4 0 -19 344 7 364 27 7 7 -1 8 -24 3 -19 -5 -96 -8
-170 -8 -122 0 -140 3 -185 25 -27 13 -54 26 -60 29 -5 2 -3 -4 5 -15 14 -17
14 -18 -2 -6 -10 8 -16 19 -15 25 1 7 -6 11 -15 11 -9 -1 -14 4 -12 11 4 10
-20 13 -106 14 -61 0 -115 2 -118 4 -4 2 -27 -1 -52 -8z"/>
<path d="M1050 2504 c-41 -18 -83 -34 -93 -34 -10 0 -15 -4 -12 -10 3 -5 20
-10 37 -10 17 0 28 3 25 7 -13 12 32 35 49 25 15 -8 14 -12 -10 -27 -17 -11
-23 -22 -18 -27 12 -12 52 11 52 30 0 7 4 10 10 7 9 -6 20 1 60 37 10 9 21 14
24 11 3 -4 6 2 6 11 0 12 -5 16 -15 12 -8 -3 -22 -9 -32 -13 -11 -4 -14 -3 -9
5 4 7 6 12 4 11 -2 -1 -37 -16 -78 -35z"/>
<path d="M517 2493 c-63 -100 -136 -302 -161 -449 -19 -108 -20 -160 -3 -168
10 -5 10 -7 0 -12 -8 -3 -13 -25 -13 -52 0 -25 3 -42 7 -39 3 4 13 1 21 -5 13
-11 14 -7 8 29 -7 38 -6 41 13 36 13 -3 18 -10 14 -21 -4 -10 -2 -13 5 -8 19
11 14 37 -8 43 -23 6 -26 23 -8 41 22 22 38 13 38 -20 l0 -32 17 23 c16 23 15
25 -6 43 -13 10 -18 18 -11 18 9 0 7 7 -5 20 -24 26 -38 26 -30 -1 5 -14 2
-25 -6 -30 -23 -14 -39 -10 -39 11 0 14 5 18 18 13 15 -6 15 -5 4 10 -10 12
-11 24 -3 49 23 77 34 124 33 143 -1 17 0 17 4 2 5 -15 8 -16 20 -6 12 10 12
14 2 20 -10 7 -10 11 0 21 9 9 12 9 12 -1 0 -7 4 -10 8 -7 5 3 8 -20 7 -50 -1
-33 1 -52 7 -46 10 10 10 27 5 165 -2 48 1 87 5 87 4 0 8 8 8 18 1 16 2 15 15
-2 12 -16 17 -17 30 -6 20 17 20 -4 -1 -24 -14 -14 -13 -16 10 -14 14 1 26 3
26 4 0 0 -5 15 -11 32 -7 22 -19 33 -39 37 -30 6 -32 28 -5 39 9 3 12 0 8 -10
-3 -7 0 -14 6 -14 16 0 13 21 -6 42 -19 22 -6 42 23 36 21 -4 26 -26 11 -45
-6 -9 -5 -13 4 -13 8 0 20 9 26 19 10 16 9 20 -4 25 -12 5 -13 9 -4 20 10 12
8 13 -8 9 -17 -4 -21 -1 -21 21 0 17 5 26 16 26 14 0 14 -3 4 -15 -7 -9 -10
-18 -7 -22 4 -3 9 2 13 11 8 20 18 20 38 0 9 -8 21 -12 27 -8 14 8 -45 43 -73
44 -10 0 -28 -17 -41 -37z"/>
<path d="M650 2480 c0 -12 101 -33 125 -27 16 4 14 5 -6 6 -14 0 -47 7 -72 15
-26 8 -47 10 -47 6z"/>
<path d="M2165 2480 c3 -5 -3 -6 -14 -3 -11 3 -25 -4 -37 -19 -11 -14 -26 -22
-34 -20 -11 4 -10 -1 4 -17 11 -11 26 -21 34 -21 9 0 12 -3 9 -7 -9 -8 54 -54
65 -47 5 3 7 12 4 19 -11 29 9 23 21 -6 9 -23 18 -30 35 -27 12 2 23 9 26 17
3 8 0 11 -7 7 -6 -4 -11 -2 -11 4 0 6 6 10 13 8 14 -3 57 36 57 53 0 11 -24
39 -34 39 -3 0 -6 -6 -6 -14 0 -7 -7 -27 -15 -42 -8 -16 -15 -23 -15 -16 0 7
-12 12 -29 12 -35 0 -52 19 -44 48 6 24 19 29 26 10 4 -10 6 -10 6 0 1 8 6 10
14 6 9 -5 9 -4 0 6 -13 14 -76 23 -68 10z m-5 -29 c3 -1 5 -14 5 -31 1 -27 0
-28 -16 -14 -10 9 -23 13 -28 9 -7 -4 -9 2 -7 17 3 13 5 24 5 25 1 1 9 0 19
-2 9 -2 19 -4 22 -4z"/>
<path d="M596 2417 c-20 -21 -36 -45 -36 -52 0 -28 12 -44 28 -37 15 5 15 3 4
-10 -9 -11 -10 -18 -2 -23 15 -9 23 21 16 64 -5 31 -2 41 17 58 13 11 31 19
40 17 26 -4 20 13 -7 18 -18 4 -32 -5 -60 -35z"/>
<path d="M845 2450 c-44 -6 -46 -7 -15 -9 29 -2 32 -4 15 -11 -16 -7 -17 -9
-3 -9 9 -1 20 3 23 9 3 5 20 14 38 19 37 11 14 11 -58 1z"/>
<path d="M1896 2441 c5 -4 28 -13 51 -18 39 -10 41 -10 30 8 -8 13 -24 19 -51
19 -23 0 -36 -4 -30 -9z"/>
<path d="M914 2425 c-12 -9 -14 -14 -6 -15 7 0 11 -4 8 -9 -3 -5 2 -15 12 -22
15 -12 16 -12 5 2 -15 18 -5 33 11 19 8 -6 12 -1 14 16 2 27 -15 31 -44 9z"/>
<path d="M744 2414 c3 -9 6 -18 6 -20 0 -2 7 -4 15 -4 8 0 15 -7 15 -15 0 -19
5 -19 35 1 34 22 32 27 -15 42 -52 16 -63 15 -56 -4z"/>
<path d="M1085 2420 c-6 -10 1 -14 19 -11 4 1 17 -1 28 -5 15 -4 17 -8 8 -14
-9 -5 -9 -9 -1 -14 6 -4 14 0 17 9 11 29 -55 61 -71 35z"/>
<path d="M1645 2400 c-6 -29 -1 -50 13 -50 14 0 31 38 25 59 -8 31 -30 26 -38
-9z"/>
<path d="M1729 2413 c-12 -15 -12 -16 6 -9 11 5 34 12 50 16 l30 8 -36 1 c-23
1 -42 -5 -50 -16z"/>
<path d="M1325 2410 c-11 -5 -18 -9 -15 -10 3 -1 12 -3 20 -5 8 -2 23 -6 33
-10 10 -4 17 -3 17 4 0 6 -9 11 -21 11 -11 0 -17 5 -14 10 7 11 7 11 -20 0z"/>
<path d="M2053 2400 c-1 -11 2 -18 6 -15 9 5 44 -29 36 -36 -2 -3 5 -5 15 -5
16 0 17 3 6 16 -7 8 -22 25 -32 38 -23 27 -29 28 -31 2z"/>
<path d="M1796 2405 c6 -3 9 -17 6 -30 -3 -19 0 -25 13 -25 15 0 15 2 4 16
-11 13 -9 14 13 9 32 -8 47 11 16 20 -35 10 -64 15 -52 10z"/>
<path d="M680 2393 c0 -6 7 -13 15 -17 8 -3 12 -12 9 -20 -3 -8 3 -30 13 -48
10 -18 19 -34 20 -36 3 -8 54 32 64 49 8 17 6 19 -21 19 -21 0 -30 -4 -27 -12
2 -7 10 -12 16 -10 7 1 10 -2 6 -8 -3 -6 -11 -8 -16 -5 -5 4 -9 1 -9 -6 0 -24
-23 9 -26 37 -3 27 -44 80 -44 57z"/>
<path d="M1038 2390 c-10 -6 -15 -19 -13 -30 2 -11 0 -18 -4 -15 -5 3 -12 -2
-15 -11 -8 -22 -9 -21 20 -27 18 -3 24 -1 20 9 -3 8 -1 14 3 14 5 0 12 -6 14
-12 4 -9 6 -10 6 -1 1 6 -6 18 -14 26 -13 13 -11 16 11 21 21 6 24 9 14 21
-14 17 -19 18 -42 5z"/>
<path d="M1753 2375 c-9 -15 -14 -17 -25 -7 -8 6 -18 9 -21 5 -4 -3 3 -11 15
-17 23 -12 34 -51 20 -70 -5 -6 -12 -22 -15 -35 l-6 -23 24 22 c30 28 36 53
20 84 -9 17 -10 26 -3 28 6 2 9 10 6 18 -3 11 -7 10 -15 -5z"/>
<path d="M981 2361 c-19 -19 -21 -25 -10 -32 8 -5 9 -9 3 -9 -6 0 -11 -7 -11
-15 0 -8 4 -15 9 -15 4 0 8 5 8 11 0 5 4 7 10 4 6 -3 7 1 4 10 -4 8 -1 22 6
30 22 27 5 40 -19 16z"/>
<path d="M627 2350 c-3 -11 -1 -20 4 -20 5 0 9 -10 9 -23 0 -17 9 -25 37 -34
21 -6 40 -9 43 -6 7 7 -30 32 -43 29 -7 -2 -9 -1 -4 1 4 3 7 11 7 19 0 9 -4
12 -10 9 -5 -3 -12 6 -16 20 -7 30 -20 33 -27 5z"/>
<path d="M1545 2349 c4 -32 15 -59 25 -59 14 0 4 50 -13 67 -14 14 -15 14 -12
-8z"/>
<path d="M1890 2359 c0 -6 9 -8 20 -4 30 10 24 -2 -10 -20 -31 -16 -41 -45
-15 -45 20 0 55 -31 48 -43 -3 -6 -1 -7 5 -3 7 4 12 14 12 22 0 8 4 12 10 9 6
-4 7 1 3 11 -5 13 -3 15 8 9 8 -4 6 1 -4 11 -18 18 -19 18 -32 0 -7 -10 -19
-15 -25 -11 -8 5 -8 11 1 21 6 7 15 11 20 8 5 -3 12 2 16 11 3 10 0 21 -8 26
-19 12 -49 11 -49 -2z"/>
<path d="M2425 2328 c-4 -24 -12 -50 -18 -58 -6 -8 -8 -12 -3 -8 10 8 49 -30
42 -41 -3 -4 1 -8 9 -8 18 0 19 9 4 24 -6 6 -13 37 -16 69 -3 33 -6 60 -8 62
-2 2 -6 -16 -10 -40z"/>
<path d="M884 2331 c3 -4 -1 -17 -9 -27 -18 -24 -19 -54 -2 -54 17 1 48 26 40
33 -3 4 -13 1 -22 -6 -8 -6 -5 2 7 20 27 38 27 43 1 43 -11 0 -18 -4 -15 -9z"/>
<path d="M2265 2310 c-16 -17 -25 -30 -19 -30 5 0 2 -5 -6 -10 -13 -8 -12 -10
4 -10 12 0 16 5 13 15 -4 8 5 23 20 35 14 11 24 22 21 25 -2 3 -17 -9 -33 -25z"/>
<path d="M2476 2319 c-11 -17 -12 -27 -3 -48 16 -38 23 -44 24 -21 1 11 -2 20
-8 20 -5 0 -9 11 -9 25 0 19 5 25 21 25 11 0 17 5 14 10 -10 16 -23 12 -39
-11z"/>
<path d="M1209 2309 c-12 -12 -18 -27 -15 -36 5 -13 4 -13 -7 -4 -11 9 -17 7
-28 -6 -13 -16 -12 -17 4 -4 20 16 22 4 3 -21 -10 -14 -15 -15 -26 -5 -12 10
-12 9 -3 -3 6 -10 7 -36 2 -75 -9 -73 -11 -110 -4 -104 2 3 7 16 9 30 2 13 6
26 7 29 2 6 3 10 13 77 8 56 20 74 30 47 5 -13 9 -14 21 -4 12 10 13 16 3 27
-9 11 -7 18 7 31 10 9 15 12 12 6 -3 -6 0 -11 8 -11 8 0 12 4 9 8 -2 4 8 12
23 18 21 8 22 10 6 7 -13 -2 -26 0 -29 5 -8 14 -22 11 -45 -12z"/>
<path d="M2060 2305 c7 -8 18 -15 25 -15 6 0 20 -9 30 -20 10 -11 26 -20 37
-20 10 0 18 -5 18 -12 0 -6 3 -8 7 -5 9 9 -27 43 -55 51 -12 4 -20 11 -17 16
3 4 -5 10 -18 14 -35 9 -40 7 -27 -9z"/>
<path d="M1340 2298 c0 -8 18 -33 39 -56 22 -23 37 -34 34 -24 -6 24 -73 97
-73 80z"/>
<path d="M996 2281 c-25 -28 -32 -84 -11 -104 9 -9 13 -22 9 -29 -4 -8 -3 -10
2 -5 9 9 33 95 37 131 3 26 -16 30 -37 7z"/>
<path d="M2004 2284 c9 -8 16 -19 16 -23 0 -5 11 -8 25 -8 14 0 25 4 25 10 0
6 -3 8 -6 5 -3 -4 -14 2 -25 13 -10 10 -26 19 -35 19 -14 0 -14 -1 0 -16z"/>
<path d="M564 2265 c11 -8 16 -15 12 -15 -4 0 2 -15 13 -34 12 -18 21 -44 22
-57 l1 -24 7 25 c10 33 -36 120 -63 120 -6 0 -2 -7 8 -15z"/>
<path d="M1640 2260 c-17 -17 -19 -24 -9 -31 7 -4 17 -5 23 -2 6 4 6 -1 1 -13
-4 -10 -7 -27 -7 -36 1 -19 -14 -25 -20 -9 -1 5 -10 2 -18 -7 -13 -14 -12 -15
4 -9 12 5 16 3 13 -5 -2 -7 -12 -12 -22 -10 -13 3 -16 -1 -11 -13 3 -9 6 -19
6 -21 0 -3 5 -2 10 1 6 3 10 2 10 -4 0 -5 -4 -13 -10 -16 -5 -3 -10 -10 -10
-16 0 -5 9 -4 19 3 14 9 17 16 11 29 -7 12 -3 24 16 44 43 46 53 88 31 120
-13 17 -15 17 -37 -5z"/>
<path d="M1832 2262 c-7 -5 -10 -16 -6 -25 9 -25 24 -20 24 8 0 28 0 28 -18
17z"/>
<path d="M674 2236 c0 -13 6 -22 12 -19 7 2 15 0 18 -5 3 -6 -1 -13 -10 -16
-14 -5 -12 -10 11 -28 22 -17 29 -18 35 -8 10 16 -3 44 -33 78 -26 28 -35 28
-33 -2z"/>
<path d="M1888 2242 c-4 -15 -1 -18 13 -15 11 3 19 0 19 -6 0 -6 -5 -11 -11
-11 -7 0 -9 -10 -5 -24 5 -19 0 -29 -20 -45 -15 -11 -31 -18 -38 -15 -6 3 0
-3 14 -15 22 -17 25 -18 29 -4 1 9 14 28 27 42 22 24 24 24 24 6 1 -18 2 -17
15 5 27 47 11 68 -27 33 -20 -18 -25 -4 -6 15 10 10 8 17 -9 33 -20 20 -20 20
-25 1z"/>
<path d="M736 2238 c19 -34 27 -39 35 -26 13 20 11 28 -6 22 -8 -4 -15 -1 -15
5 0 6 -5 11 -11 11 -5 0 -7 -6 -3 -12z"/>
<path d="M1789 2243 c-1 -4 -1 -11 0 -15 0 -5 -7 -8 -16 -8 -10 0 -27 -7 -37
-15 -16 -12 -17 -17 -6 -30 16 -20 29 -19 37 3 3 9 15 27 25 38 13 14 16 24 9
29 -6 3 -12 3 -12 -2z"/>
<path d="M2290 2240 c0 -5 -8 -6 -17 -3 -14 6 -14 3 3 -20 22 -30 30 -33 38
-12 3 8 0 14 -7 12 -7 -1 -11 6 -9 16 2 9 0 17 -3 17 -3 0 -5 -4 -5 -10z"/>
<path d="M2360 2235 c0 -17 -2 -18 -11 -5 -9 12 -10 12 -5 -3 3 -10 6 -24 6
-30 0 -6 7 -1 16 12 12 17 13 26 5 34 -8 8 -11 6 -11 -8z"/>
<path d="M1982 2205 c-1 -19 2 -23 14 -18 13 5 15 2 9 -15 -7 -26 7 -29 26 -6
11 13 8 19 -16 40 -15 13 -29 24 -29 24 -1 0 -3 -11 -4 -25z"/>
<path d="M836 2190 c-13 -16 -22 -31 -19 -34 3 -3 0 -12 -7 -21 -7 -8 -8 -15
-2 -15 5 0 15 13 22 30 7 16 16 27 21 24 5 -3 8 0 7 7 -2 6 3 14 10 16 6 3 12
0 12 -6 0 -6 9 -11 20 -11 11 0 20 5 20 11 0 5 -4 7 -10 4 -5 -3 -10 -2 -10 3
0 24 -40 19 -64 -8z"/>
<path d="M942 2198 c-14 -14 -16 -38 -3 -38 15 0 30 25 22 38 -5 9 -10 9 -19
0z"/>
<path d="M540 2190 c-12 -7 -8 -12 18 -21 18 -6 31 -16 29 -22 -5 -17 -47 -15
-57 2 -8 14 -9 13 -10 -5 0 -28 10 -36 28 -21 12 9 16 9 19 -1 3 -6 9 -10 14
-7 5 4 6 -1 3 -9 -3 -9 -9 -16 -13 -16 -4 0 -8 -12 -9 -26 -2 -32 -11 -46 -23
-39 -12 8 2 -27 17 -43 10 -10 12 -8 11 8 -1 11 -5 20 -9 20 -4 0 4 21 19 48
45 80 20 169 -37 132z"/>
<path d="M2270 2174 c15 -25 50 -49 50 -34 0 5 -4 10 -10 10 -5 0 -10 5 -10
11 0 5 5 7 12 3 7 -5 8 -3 4 5 -5 7 -14 10 -21 7 -7 -2 -18 1 -25 7 -9 9 -9 7
0 -9z"/>
<path d="M879 2158 c-1 -7 -1 -19 0 -25 1 -7 -5 -13 -14 -13 -8 0 -15 -4 -15
-9 0 -5 -3 -18 -7 -28 -6 -16 -5 -16 10 -4 9 7 14 18 10 24 -3 5 -1 7 5 3 13
-8 27 12 27 42 1 23 -14 32 -16 10z"/>
<path d="M2150 2161 c0 -5 7 -14 15 -21 8 -7 15 -16 15 -21 0 -5 -7 -9 -15 -9
-8 0 -15 -4 -15 -10 0 -16 24 -7 37 15 9 16 8 23 -4 38 -17 18 -33 22 -33 8z"/>
<path d="M2330 2144 c0 -16 5 -24 13 -22 18 7 20 35 2 41 -11 5 -15 0 -15 -19z"/>
<path d="M1443 2138 c1 -7 -4 -12 -11 -10 -8 1 -11 -2 -7 -8 4 -6 -1 -18 -11
-25 -11 -8 -14 -15 -8 -15 12 0 54 46 54 60 0 6 -4 10 -10 10 -5 0 -9 -6 -7
-12z"/>
<path d="M1720 2133 c0 -7 -7 -16 -15 -19 -8 -4 -12 -10 -9 -15 3 -5 0 -9 -5
-9 -6 0 -11 -5 -11 -10 0 -6 8 -5 20 2 11 7 20 18 20 25 0 7 4 13 9 13 5 0 11
6 14 13 3 8 -1 14 -9 14 -8 0 -14 -6 -14 -14z"/>
<path d="M1534 2120 c-36 -36 -45 -50 -39 -61 4 -6 1 -10 -6 -8 -8 1 -23 1
-34 -1 -20 -1 -20 -1 0 -9 11 -4 38 -4 60 2 22 5 45 10 52 11 7 1 16 6 20 10
4 5 -6 5 -23 2 -35 -8 -53 14 -29 34 11 9 12 7 8 -12 -4 -22 -4 -22 11 -4 9
11 16 14 16 7 0 -7 5 -9 10 -6 15 9 12 25 -6 25 -8 0 -13 4 -9 9 11 19 -13 20
-31 1z"/>
<path d="M2383 2133 c-21 -8 -14 -25 7 -18 21 7 28 -10 8 -18 -10 -4 -10 -6 0
-6 22 -2 52 19 52 34 0 8 -4 15 -10 15 -5 0 -7 -8 -4 -17 5 -17 5 -17 -9 0
-15 17 -22 19 -44 10z"/>
<path d="M917 2096 c-10 -22 -15 -41 -12 -44 3 -3 5 -2 5 3 0 4 10 -7 23 -25
12 -19 28 -35 34 -38 17 -5 27 23 17 46 -4 9 -6 24 -5 32 2 10 -5 8 -22 -8
-18 -17 -26 -20 -30 -10 -2 7 5 22 17 33 12 11 16 16 10 12 -8 -6 -14 -1 -16
15 -4 20 -6 18 -21 -16z"/>
<path d="M2523 2110 c-3 -13 -11 -19 -19 -16 -8 3 -14 1 -14 -5 0 -6 -5 -7
-10 -4 -6 3 -13 -1 -16 -9 -3 -9 -11 -13 -18 -9 -7 4 -7 1 1 -9 7 -8 10 -18 6
-21 -3 -4 -1 -7 5 -7 7 0 12 5 12 11 0 7 9 9 24 5 16 -4 26 -1 30 10 3 9 11
12 18 8 9 -5 8 -2 -1 9 -8 10 -11 20 -7 24 3 3 6 1 6 -5 0 -7 5 -12 11 -12 15
0 7 42 -9 48 -7 2 -16 -6 -19 -18z"/>
<path d="M1175 2088 c-13 -67 31 -159 89 -190 21 -11 21 -10 -1 14 -13 13 -23
31 -23 39 1 10 5 8 16 -6 15 -19 15 -19 8 10 -9 38 -13 43 -24 25 -5 -8 -10
-12 -12 -10 -21 33 -30 60 -34 98 -6 58 -11 63 -19 20z"/>
<path d="M2005 2110 c-4 -6 -12 -9 -19 -7 -7 3 -23 -2 -37 -10 l-24 -14 27 4
c15 2 25 1 23 -3 -3 -4 4 -15 14 -24 18 -16 20 -16 34 4 16 24 16 52 0 57 -6
2 -14 -1 -18 -7z"/>
<path d="M1361 2093 c-1 -8 -13 -10 -38 -6 -34 6 -37 5 -25 -9 10 -13 10 -17
0 -21 -10 -3 -9 -9 4 -22 16 -18 17 -17 12 1 -2 10 0 25 5 33 8 12 12 13 26 1
14 -11 19 -11 33 5 9 10 12 15 5 11 -6 -3 -14 0 -16 6 -4 9 -6 10 -6 1z"/>
<path d="M1722 2079 c-10 -16 -20 -19 -48 -16 -25 4 -34 1 -34 -9 0 -8 5 -14
10 -14 6 0 10 4 10 9 0 4 12 6 27 3 18 -3 30 1 40 14 11 16 17 17 33 6 24 -15
26 -9 4 12 -20 21 -27 20 -42 -5z"/>
<path d="M2254 2076 c-7 -28 2 -49 17 -41 5 4 5 13 0 23 -4 9 -6 23 -4 30 3 6
2 12 -1 12 -3 0 -8 -11 -12 -24z"/>
<path d="M737 2043 c3 -20 2 -24 -5 -14 -8 11 -12 9 -22 -10 -7 -13 -21 -32
-32 -43 -11 -10 -16 -21 -12 -25 4 -3 9 0 11 7 3 6 10 9 15 6 7 -5 8 -2 3 6
-6 10 -4 12 7 8 10 -4 23 4 35 20 29 40 34 60 17 66 -22 8 -22 9 -17 -21z"/>
<path d="M1892 2056 c7 -8 16 -12 19 -10 4 2 10 -3 13 -12 5 -12 2 -15 -10
-10 -14 5 -15 4 -5 -8 7 -8 10 -24 7 -34 -4 -13 -1 -22 9 -26 20 -7 55 10 55
27 0 20 -65 87 -84 87 -14 0 -15 -2 -4 -14z"/>
<path d="M607 2045 c-11 -8 -17 -23 -15 -37 3 -21 5 -20 25 15 23 39 20 46
-10 22z"/>
<path d="M2093 2044 c3 -3 -7 -18 -22 -32 -15 -15 -23 -24 -18 -20 5 3 18 -3
28 -13 28 -28 109 -24 109 6 0 7 -7 16 -16 19 -8 3 -13 2 -11 -2 9 -13 -19
-30 -34 -21 -8 5 -11 9 -6 9 9 0 -21 60 -30 60 -3 0 -4 -3 0 -6z"/>
<path d="M490 2023 c0 -11 8 -27 18 -36 17 -16 19 -16 19 0 0 10 -9 26 -19 37
-18 20 -18 20 -18 -1z"/>
<path d="M1823 2022 c0 -17 65 -67 74 -58 4 4 1 11 -7 16 -8 5 -15 13 -16 17
-4 36 -51 59 -51 25z"/>
<path d="M2470 2020 c-8 -5 -10 -10 -4 -10 7 0 14 -9 17 -21 3 -12 10 -18 16
-15 6 4 20 2 31 -4 28 -15 27 13 -2 40 -24 22 -36 24 -58 10z"/>
<path d="M910 2000 c-12 -7 -12 -12 -2 -22 9 -9 15 -9 24 0 16 16 -2 34 -22
22z"/>
<path d="M1340 1994 c0 -12 7 -25 16 -28 25 -10 27 -1 5 25 -20 24 -20 24 -21
3z"/>
<path d="M1586 2002 c-6 -11 4 -52 13 -52 9 0 31 22 31 32 0 12 -38 29 -44 20z"/>
<path d="M2598 1950 c-4 -36 -6 -66 -4 -67 8 -8 216 -14 216 -6 0 5 -38 10
-85 12 -47 1 -95 6 -107 11 -21 8 -21 9 -3 10 16 0 17 2 6 9 -11 7 -7 10 15
14 l29 4 -27 2 c-16 0 -28 6 -28 12 0 8 34 10 113 6 l112 -5 -112 10 c-102 10
-112 12 -115 32 -2 11 -7 -8 -10 -44z"/>
<path d="M810 1990 c-8 -5 -11 -10 -7 -10 4 0 2 -6 -5 -14 -7 -7 -19 -11 -26
-9 -8 3 -10 0 -6 -10 7 -19 -7 -28 -54 -32 -35 -3 -36 -3 -13 9 13 7 19 16 14
19 -6 4 -18 -2 -28 -13 -10 -11 -15 -20 -11 -20 5 0 -6 -16 -23 -35 -17 -20
-31 -41 -31 -46 0 -10 29 11 92 65 9 8 18 12 21 10 7 -7 59 15 54 23 -3 5 7 9
21 10 43 3 118 20 102 23 -37 8 -66 4 -77 -10 -9 -12 -14 -13 -24 -2 -11 10
-10 12 3 12 9 0 18 9 21 20 6 22 0 25 -23 10z"/>
<path d="M441 1976 c-11 -14 -11 -16 3 -16 9 0 16 -5 16 -11 0 -6 6 -9 13 -6
6 2 24 -2 38 -9 15 -7 29 -10 33 -7 9 9 -46 35 -61 29 -8 -3 -17 3 -21 15 -7
19 -9 19 -21 5z"/>
<path d="M1490 1975 c0 -8 5 -15 11 -15 6 0 17 -7 25 -15 18 -17 38 -20 28 -4
-3 6 0 15 7 20 12 8 12 11 -1 19 -24 15 -70 12 -70 -5z"/>
<path d="M950 1974 c0 -11 26 -31 50 -39 14 -4 40 -24 59 -44 19 -20 29 -28
22 -18 -11 13 -11 20 -1 32 10 12 7 15 -14 21 -14 3 -26 10 -26 15 0 5 -3 8
-7 7 -15 -3 -63 14 -63 23 0 5 -4 9 -10 9 -5 0 -10 -3 -10 -6z"/>
<path d="M2041 1937 c-26 -29 -30 -81 -8 -123 21 -41 73 -84 100 -84 17 0 13
6 -22 31 -24 19 -40 37 -37 45 3 7 1 16 -4 19 -13 8 -4 60 10 57 6 -1 21 5 33
13 22 16 21 16 -8 9 -16 -3 -40 -12 -52 -20 -16 -10 -21 -10 -19 -1 3 23 17
36 46 42 16 4 32 10 35 15 3 4 -4 6 -15 3 -11 -3 -20 0 -20 6 0 18 -15 13 -39
-12z"/>
<path d="M2190 1949 c0 -5 -4 -7 -10 -4 -5 3 -10 2 -10 -3 0 -11 36 -23 44
-14 12 11 6 32 -9 32 -8 0 -15 -5 -15 -11z"/>
<path d="M1286 1935 c-5 -14 25 -45 62 -64 19 -10 23 -9 34 13 6 14 15 23 19
20 5 -3 9 0 9 7 0 6 -8 9 -20 6 -12 -3 -23 1 -28 9 -10 18 -69 25 -76 9z"/>
<path d="M1433 1910 c-9 -22 -20 -37 -24 -34 -5 3 -9 -2 -9 -10 0 -18 16 -21
26 -5 3 6 20 19 38 30 20 12 25 19 14 19 -9 0 -19 4 -23 9 -3 6 7 6 27 0 21
-6 36 -5 43 2 7 7 5 8 -6 4 -10 -4 -19 0 -22 9 -4 9 -16 16 -27 16 -16 0 -26
-11 -37 -40z"/>
<path d="M1814 1922 l20 -23 -32 6 c-19 3 -32 1 -32 -5 0 -5 9 -10 19 -10 11
0 23 -4 26 -10 3 -5 5 -10 3 -10 -44 6 -112 30 -110 39 1 6 -5 11 -14 11 -34
0 -5 -26 50 -44 58 -19 59 -19 94 0 25 13 31 20 19 22 -10 2 -14 9 -11 15 4 7
3 9 -1 4 -5 -4 -18 1 -29 10 l-21 18 19 -23z"/>
<path d="M2735 1925 c90 -17 85 -17 85 -2 0 10 -21 13 -77 14 l-78 1 70 -13z"/>
<path d="M2360 1920 c8 -5 12 -10 8 -10 -4 0 0 -9 9 -20 21 -24 65 -28 57 -5
-4 9 -11 15 -18 14 -23 -3 -37 1 -32 10 3 5 -1 12 -10 15 -24 9 -31 7 -14 -4z"/>
<path d="M810 1896 c-69 -19 -116 -45 -171 -93 -96 -87 -159 -275 -160 -481 0
-60 -4 -100 -10 -97 -11 8 -11 4 1 -70 6 -33 13 -78 16 -100 4 -22 10 -48 15
-57 5 -9 9 -25 9 -35 0 -10 9 -35 19 -56 19 -37 16 -48 -7 -25 -9 9 -12 9 -12
1 0 -7 14 -22 32 -34 l31 -23 23 27 c13 15 25 42 28 60 40 276 84 421 167 547
20 30 44 71 54 90 l17 35 -36 -35 c-113 -107 -188 -298 -231 -585 -15 -102
-20 -125 -28 -114 -2 2 -18 65 -37 139 -39 159 -47 258 -30 372 7 46 14 94 15
108 1 14 3 25 4 25 2 0 4 7 6 15 13 64 41 137 60 156 19 19 20 24 8 37 -12 12
-9 17 21 40 19 15 42 34 51 43 34 35 150 85 207 91 46 4 66 1 102 -17 25 -12
46 -25 46 -30 0 -4 8 -6 18 -4 9 3 33 -8 53 -25 29 -24 38 -40 44 -78 4 -27
10 -42 12 -35 3 6 10 9 16 5 7 -4 6 1 -2 10 -11 15 -11 17 2 17 8 0 18 -7 21
-16 4 -9 9 -14 13 -10 3 3 -8 24 -25 45 -18 22 -32 44 -32 50 0 19 -62 61 -90
61 -19 0 -29 6 -33 19 -9 37 -119 52 -207 27z"/>
<path d="M2460 1890 c5 -9 6 -20 3 -24 -3 -3 -1 -6 5 -6 11 0 14 5 16 32 1 6
-7 12 -16 14 -14 2 -16 -1 -8 -16z"/>
<path d="M1085 1890 c3 -5 13 -10 21 -10 12 0 18 -11 16 -31 -1 -4 8 -5 19 -2
18 5 16 8 -13 29 -33 25 -54 31 -43 14z"/>
<path d="M2534 1878 c-12 -17 -12 -53 0 -53 5 0 11 15 13 33 4 34 1 39 -13 20z"/>
<path d="M1480 1873 c-8 -3 -26 -16 -40 -28 -14 -12 -42 -25 -63 -28 -74 -11
-204 -124 -169 -146 7 -4 8 -26 3 -66 -5 -33 -7 -62 -4 -65 7 -7 50 49 50 66
0 8 -5 14 -11 14 -7 0 -13 11 -14 24 -2 34 45 79 77 73 18 -4 31 3 50 26 14
17 25 35 23 40 -1 5 2 6 7 3 5 -3 14 1 21 9 7 8 21 15 31 15 11 0 19 4 19 9 0
15 78 41 123 41 72 0 160 -36 205 -83 22 -23 48 -47 58 -54 16 -10 16 -12 3
-12 -9 -1 -28 13 -42 29 -24 27 -43 35 -64 28 -5 -2 -7 -6 -6 -10 2 -5 -3 -8
-10 -8 -6 -1 2 -9 19 -18 70 -38 115 -88 134 -149 23 -71 26 -48 4 27 -8 29
-13 61 -11 71 7 26 -69 127 -110 148 -77 40 -230 63 -283 44z m-131 -127 c-15
-15 -30 -21 -43 -18 -18 5 -16 7 12 20 18 9 32 20 32 24 0 5 5 6 10 3 7 -4 2
-16 -11 -29z"/>
<path d="M2274 1866 c-8 -9 -6 -18 8 -36 10 -12 21 -20 25 -17 3 4 1 12 -4 19
-6 7 -12 20 -14 30 -3 12 -7 13 -15 4z"/>
<path d="M577 1862 c-5 -7 -10 -25 -12 -39 -1 -14 -7 -28 -12 -32 -5 -3 -13
-15 -17 -26 -5 -15 1 -12 24 11 25 25 31 38 28 65 -2 23 -6 30 -11 21z"/>
<path d="M2570 1798 c-29 -166 -116 -383 -214 -536 -91 -141 -251 -317 -368
-404 -38 -28 -66 -53 -63 -56 3 -3 15 3 28 14 28 25 85 64 92 64 8 0 55 42
116 105 83 86 105 113 152 180 22 33 44 62 49 63 4 2 8 10 8 17 0 7 4 15 9 17
11 4 123 228 142 283 7 22 17 45 21 51 4 6 8 25 10 42 1 18 5 32 9 32 4 0 10
15 13 34 4 19 12 37 19 39 9 4 9 6 0 6 -31 2 -9 21 25 23 36 1 36 1 5 5 -37 5
-40 10 -15 29 11 9 13 13 4 14 -7 0 -10 5 -7 10 3 6 1 10 -6 10 -8 0 -8 4 1
15 10 12 10 15 -2 15 -10 0 -19 -21 -28 -72z"/>
<path d="M461 1828 c-2 -41 -2 -42 -13 -55 -7 -9 -7 -13 1 -13 6 0 11 5 11 10
0 6 5 10 11 10 6 0 8 -9 4 -20 -10 -30 17 -15 39 22 11 17 14 28 7 24 -6 -4
-11 -1 -11 8 0 8 5 17 10 19 6 3 5 4 -2 3 -7 -2 -13 -12 -13 -24 0 -11 -5 -25
-9 -29 -5 -5 -6 -2 -1 6 6 10 2 12 -16 7 -23 -7 -23 -7 -5 8 11 9 15 16 9 16
-7 0 -14 8 -16 18 -3 10 -5 6 -6 -10z"/>
<path d="M2730 1839 c66 -11 109 -11 90 1 -8 5 -42 9 -75 9 l-60 -2 45 -8z"/>
<path d="M2231 1822 c-12 -22 2 -48 19 -37 7 4 16 2 21 -6 15 -24 10 -30 -18
-24 -28 5 -28 5 -4 -7 20 -10 25 -9 37 6 11 15 10 22 -3 42 -15 23 -16 23 -30
7 -13 -17 -14 -16 -10 10 5 31 2 34 -12 9z"/>
<path d="M1854 1790 c20 -23 44 -57 53 -76 17 -34 17 -34 29 -12 14 27 -2 72
-23 64 -8 -3 -12 -2 -9 2 7 11 -11 37 -26 37 -7 1 -12 6 -10 13 1 7 -9 12 -24
12 l-26 0 36 -40z"/>
<path d="M1946 1821 c-9 -14 3 -53 14 -46 4 3 6 -4 3 -15 -6 -23 15 -28 23 -5
8 19 -31 82 -40 66z"/>
<path d="M2130 1810 c0 -23 25 -27 33 -6 7 16 -1 26 -20 26 -7 0 -13 -9 -13
-20z"/>
<path d="M1044 1763 c8 -22 21 -55 30 -71 24 -46 21 -94 -8 -121 -43 -40 -69
-122 -63 -194 6 -72 35 -274 42 -297 9 -29 -14 -285 -35 -394 -19 -96 -21
-118 -11 -185 7 -42 18 -82 26 -90 13 -13 20 -9 61 35 25 27 68 78 95 114 l49
64 0 85 c0 82 0 84 19 67 19 -17 19 -17 14 3 -3 12 -1 21 6 21 6 0 11 15 10
33 0 26 -2 28 -8 12 -5 -11 -7 -23 -4 -27 2 -5 -3 -8 -13 -8 -13 0 -15 6 -10
31 3 17 6 36 6 41 0 5 4 6 10 3 5 -3 7 0 4 9 -3 8 4 34 16 58 14 28 17 38 7
28 -32 -31 -57 -123 -64 -232 -3 -60 -10 -108 -14 -108 -5 0 -6 -6 -3 -13 2
-7 -14 -31 -36 -54 -22 -23 -40 -48 -40 -54 0 -7 -3 -9 -7 -6 -3 4 -19 -11
-35 -33 -17 -22 -34 -40 -39 -40 -6 0 -7 -6 -3 -12 5 -9 4 -10 -4 -3 -6 6 -16
44 -22 85 -11 71 -9 84 24 233 20 88 36 169 36 181 0 12 8 38 19 58 20 40 15
64 -5 26 l-12 -23 -5 25 c-33 164 -49 285 -50 380 -1 52 5 77 28 125 16 33 30
54 33 47 2 -7 8 -12 13 -12 6 0 7 4 4 10 -3 6 1 7 9 4 11 -4 16 0 16 14 0 11
-7 22 -15 26 -8 3 -15 16 -14 28 1 22 1 22 9 -2 7 -20 8 -17 7 17 -1 24 -4 43
-7 43 -4 0 -11 15 -18 33 -7 19 -23 44 -37 57 l-26 24 15 -41z"/>
<path d="M1235 1791 c-11 -5 -27 -6 -35 -3 -12 4 -11 1 2 -13 15 -17 20 -17
43 -5 40 22 33 38 -10 21z"/>
<path d="M537 1736 c-17 -16 -25 -31 -21 -41 7 -18 12 -14 40 38 18 33 14 34
-19 3z"/>
<path d="M707 1711 c-56 -60 -89 -123 -123 -238 -24 -79 -27 -107 -29 -273
l-3 -185 8 160 c4 88 15 192 23 231 26 118 84 254 109 254 5 0 7 4 3 10 -3 5
11 27 31 50 20 22 34 40 32 40 -3 0 -26 -22 -51 -49z"/>
<path d="M2433 1744 c-3 -9 0 -20 7 -24 7 -4 9 -13 6 -19 -5 -7 1 -11 14 -11
13 0 19 -4 14 -12 -4 -7 -3 -8 4 -4 7 4 12 2 12 -4 0 -7 -6 -10 -12 -7 -7 2
-24 7 -38 11 -23 7 -23 6 5 -14 25 -18 26 -20 7 -15 l-23 7 23 -24 c13 -14 27
-21 32 -16 13 11 15 58 3 88 -6 14 -11 27 -11 30 -6 29 -33 38 -43 14z"/>
<path d="M347 1743 c-4 -3 -7 -11 -7 -16 0 -6 3 -7 7 -4 3 4 12 2 20 -4 10 -9
13 -7 13 10 0 20 -19 28 -33 14z"/>
<path d="M345 1680 c12 -90 18 -121 25 -125 11 -7 7 59 -4 67 -5 3 -1 14 9 24
11 12 14 19 6 22 -6 2 -11 10 -11 18 0 9 -4 13 -9 10 -5 -4 -12 0 -15 6 -3 7
-4 -3 -1 -22z"/>
<path d="M1717 1691 c3 -12 11 -20 17 -18 6 2 29 -4 51 -15 l40 -19 -28 26
c-15 14 -36 25 -46 25 -9 0 -22 5 -28 11 -9 9 -10 6 -6 -10z"/>
<path d="M2115 1690 c10 -11 20 -18 24 -17 9 5 50 -41 43 -47 -3 -3 0 -6 6 -6
7 0 12 4 12 9 0 16 -64 75 -84 78 -19 3 -19 3 -1 -17z"/>
<path d="M1324 1668 c-25 -50 -86 -127 -105 -133 -9 -3 -22 -26 -29 -51 -11
-39 -11 -47 1 -55 11 -7 8 -9 -9 -9 -27 0 -73 -22 -91 -44 -7 -9 -16 -14 -20
-12 -4 3 -7 -3 -8 -12 -1 -9 -4 -30 -8 -47 -4 -24 -1 -20 16 15 54 116 165
111 239 -9 14 -23 29 -41 34 -41 9 0 -30 56 -73 104 -20 22 -22 28 -8 23 11
-4 16 -3 12 4 -4 5 -16 7 -27 3 -13 -4 -18 -2 -14 4 4 6 -3 8 -16 5 -19 -4
-20 -3 -8 6 10 7 11 11 3 11 -7 0 -13 5 -13 10 0 16 21 12 43 -7 19 -18 19
-17 6 5 -8 12 -18 22 -23 22 -5 0 -2 8 8 19 9 10 14 25 11 34 -4 8 -2 18 4 22
7 4 8 -1 4 -12 -6 -17 -5 -17 14 0 11 9 23 14 27 10 4 -4 4 0 1 9 -4 9 -2 19
4 23 6 3 11 16 11 28 0 12 19 42 43 66 23 25 29 34 13 21 -28 -25 -28 -25 -22
-2 11 33 -1 27 -20 -10z"/>
<path d="M1951 1680 c1 -14 4 -36 8 -50 6 -23 8 -23 12 -5 3 11 0 34 -7 50
-13 29 -13 29 -13 5z"/>
<path d="M2181 1683 c25 -33 47 -52 53 -46 9 9 7 45 -2 39 -5 -3 -21 2 -37 10
-26 13 -27 13 -14 -3z"/>
<path d="M1156 1635 c10 -79 16 -99 25 -84 5 8 8 23 8 34 0 20 0 20 -9 0 -7
-16 -9 -14 -9 15 -1 23 2 30 8 21 6 -9 9 -5 9 14 0 25 -2 26 -11 9 -10 -18
-11 -18 -19 6 -5 17 -6 13 -2 -15z"/>
<path d="M1482 1635 c-1 -13 3 -27 10 -31 7 -5 9 0 6 14 -7 25 3 22 39 -11 15
-13 21 -27 18 -41 -3 -12 6 -43 20 -70 36 -70 31 -168 -12 -233 -14 -21 -17
-21 -36 -8 -12 8 -31 16 -42 16 -15 1 -16 2 -4 6 20 5 19 65 -1 71 -7 3 -10 0
-6 -7 5 -7 1 -9 -10 -4 -15 5 -16 2 -11 -26 6 -30 5 -33 -13 -28 -11 3 -20 1
-20 -4 0 -5 -12 -10 -27 -10 l-28 -1 30 -8 c17 -4 44 -8 62 -9 53 -2 82 -17
76 -40 -3 -11 -10 -18 -16 -17 -7 2 -9 1 -4 -1 4 -3 7 -26 7 -53 0 -45 -2 -48
-31 -54 -17 -3 -53 -28 -85 -58 -65 -64 -67 -82 -23 -208 l29 -85 -4 52 c-3
39 0 53 11 58 9 3 13 13 10 25 -3 11 -1 20 4 20 5 0 9 7 9 16 0 8 7 22 15 30
8 9 15 21 15 27 0 7 -4 6 -11 -3 -8 -11 -9 -6 -4 20 4 23 3 30 -3 21 -6 -9
-12 -10 -16 -3 -4 6 0 19 9 29 8 10 21 27 28 37 9 13 20 17 32 12 15 -5 17
-14 11 -67 -4 -33 -22 -94 -40 -137 -85 -194 -108 -324 -141 -784 -6 -83 -6
-88 13 -88 15 0 18 5 14 25 -2 13 -1 33 3 42 8 20 8 71 -2 118 -5 26 -4 28 10
16 15 -12 16 -3 14 88 -1 56 1 101 5 101 4 0 7 21 7 48 0 47 7 117 10 117 1 0
4 16 7 35 2 19 13 59 23 90 11 30 22 68 25 83 4 15 20 58 37 95 17 37 33 74
34 82 8 42 16 123 19 193 1 43 7 82 12 85 53 39 77 218 39 291 -18 36 -11 57
26 77 52 27 110 28 163 4 67 -30 90 -81 93 -210 1 -52 -2 -113 -7 -135 -4 -22
-11 -58 -15 -80 -8 -54 -64 -263 -80 -300 -34 -77 -49 -173 -24 -148 28 28
134 436 148 572 11 98 3 256 -10 211 -6 -21 -7 -21 -8 -5 -2 25 -37 101 -45
97 -4 -1 -18 6 -33 15 -17 11 -45 18 -73 17 -54 0 -140 -23 -140 -35 0 -15
-26 -10 -43 9 -10 10 -17 28 -17 40 0 12 -4 22 -10 22 -5 0 -10 -5 -10 -12 0
-9 -3 -9 -12 0 -18 18 -23 15 -26 -13z m-42 -666 c0 -5 -7 -6 -15 -3 -11 5
-13 2 -8 -12 4 -11 3 -15 -4 -11 -6 4 -9 -3 -7 -18 1 -14 -1 -23 -6 -20 -5 3
-10 -1 -13 -7 -2 -7 -6 7 -8 31 -4 36 -2 45 13 49 10 2 18 9 18 14 0 6 7 5 15
-2 8 -7 15 -16 15 -21z"/>
<path d="M1574 1638 c-3 -5 -10 -6 -15 -3 -5 3 -6 -1 -2 -10 3 -10 8 -12 12
-6 4 5 18 8 32 7 16 -2 26 2 26 10 0 14 -45 15 -53 2z"/>
<path d="M2396 1631 c-3 -5 -1 -11 6 -13 8 -3 4 -12 -10 -26 -23 -23 -30 -72
-11 -72 5 0 7 -5 3 -12 -4 -7 -3 -8 5 -4 7 5 11 18 10 29 -4 30 10 69 22 62
13 -9 10 7 -5 28 -8 10 -17 14 -20 8z"/>
<path d="M592 1596 c-30 -51 -62 -161 -61 -210 1 -40 1 -40 15 19 19 81 54
187 67 203 5 7 8 15 5 18 -3 3 -15 -11 -26 -30z"/>
<path d="M1446 1614 c-9 -24 -7 -46 4 -39 7 4 9 -4 6 -22 -5 -28 -5 -28 34
-25 45 5 51 14 18 30 -22 10 -22 11 -3 13 11 1 4 4 -15 8 -29 5 -35 10 -33 29
3 26 -2 29 -11 6z"/>
<path d="M1926 1595 c3 -16 12 -66 20 -110 l13 -80 -5 68 c-3 38 -12 87 -20
110 -8 24 -11 29 -8 12z"/>
<path d="M410 1556 c0 -8 5 -18 10 -21 16 -10 12 -28 -5 -21 -9 3 -18 -1 -21
-9 -7 -17 14 -85 26 -85 5 0 7 -8 4 -17 -5 -15 -4 -15 4 -3 7 9 7 18 1 26 -5
6 -7 19 -3 28 3 9 1 16 -5 16 -6 0 -11 7 -11 15 0 8 5 15 10 15 6 0 10 -6 10
-14 0 -15 24 -28 34 -19 3 4 6 11 6 17 0 6 -4 5 -9 -3 -6 -10 -9 -3 -8 22 1
34 -16 67 -34 67 -5 0 -9 -6 -9 -14z"/>
<path d="M1323 1527 c-18 -12 -32 -26 -32 -32 3 -24 -2 -36 -11 -30 -6 4 -8
10 -5 15 3 5 0 12 -7 16 -7 4 -10 4 -6 -1 4 -4 3 -14 -3 -22 -9 -10 -7 -13 6
-13 11 0 15 -5 11 -15 -3 -8 -1 -15 4 -15 5 0 10 -6 13 -12 2 -7 2 -2 0 12 -3
19 6 34 31 59 20 19 32 39 29 44 -4 6 0 8 11 4 10 -4 15 -3 11 3 -8 14 -15 12
-52 -13z"/>
<path d="M1500 1501 c5 -11 10 -29 10 -40 0 -11 4 -22 9 -25 5 -4 7 4 3 16 -3
13 -1 19 6 15 5 -4 9 -1 8 5 -6 29 -19 48 -32 48 -11 0 -12 -4 -4 -19z"/>
<path d="M1128 1504 c-12 -11 -10 -46 2 -39 6 3 10 2 10 -4 0 -5 -6 -11 -12
-14 -10 -4 -10 -7 -1 -16 7 -6 11 -8 8 -5 -2 4 5 21 17 38 14 20 16 26 6 18
-14 -11 -17 -10 -20 8 -2 12 -6 18 -10 14z"/>
<path d="M1341 1476 c-12 -14 -12 -16 3 -10 13 5 15 2 9 -12 -6 -18 -6 -18 15
0 24 21 31 46 8 27 -11 -9 -15 -9 -18 0 -2 7 -8 6 -17 -5z"/>
<path d="M1453 1479 c-9 -9 -6 -17 14 -33 l27 -20 -25 -7 c-24 -7 -24 -7 -1
-8 13 -1 20 -5 17 -11 -3 -5 -1 -10 4 -10 6 0 10 -3 9 -7 -2 -5 0 -9 5 -10 16
-6 19 -2 8 11 -8 10 -9 16 -2 21 7 4 3 14 -10 28 -12 12 -24 30 -28 40 -5 13
-9 15 -18 6z"/>
<path d="M1100 1460 c0 -12 -7 -35 -16 -53 l-15 -32 20 25 c18 22 30 80 16 80
-3 0 -5 -9 -5 -20z"/>
<path d="M2104 1442 c-1 -20 4 -40 9 -44 7 -4 6 -13 -4 -25 -13 -17 -13 -17 4
-4 10 8 16 19 14 25 -2 6 -1 21 4 33 5 15 3 26 -9 36 -16 14 -17 13 -18 -21z"/>
<path d="M366 1455 c-3 -8 0 -15 5 -15 6 0 9 -9 6 -20 -3 -11 -1 -18 4 -14 5
3 9 1 9 -4 0 -5 8 -27 17 -48 9 -22 16 -41 16 -45 -1 -3 7 -10 18 -17 15 -10
19 -10 19 2 0 7 -6 19 -14 26 -8 6 -27 43 -42 81 -15 38 -28 69 -30 69 -1 0
-4 -7 -8 -15z"/>
<path d="M2272 1415 c0 -22 2 -34 5 -26 3 8 18 25 32 37 14 13 20 24 13 24 -7
0 -15 -7 -18 -15 -8 -20 -21 -19 -27 3 -3 9 -5 -1 -5 -23z"/>
<path d="M2044 1427 c-2 -7 -1 -24 4 -38 9 -22 10 -21 14 14 4 36 -7 51 -18
24z"/>
<path d="M1971 1360 c-1 -25 -3 -63 -6 -85 -4 -32 -3 -35 4 -15 9 24 9 23 11
-10 1 -19 4 -28 7 -20 3 8 11 29 19 45 17 40 21 74 9 75 -10 0 -12 -4 -14 -41
0 -11 -6 -17 -11 -14 -6 4 -9 14 -6 23 3 10 1 33 -3 52 l-9 35 -1 -45z"/>
<path d="M1194 1368 c3 -13 3 -18 0 -11 -3 7 -12 9 -20 6 -8 -3 -14 0 -14 6 0
6 -4 11 -8 11 -13 0 -10 -27 2 -27 6 -1 25 -3 42 -6 21 -3 31 0 31 9 0 7 -4
11 -9 8 -4 -3 -8 2 -8 10 0 9 -5 16 -11 16 -6 0 -8 -10 -5 -22z"/>
<path d="M1122 1314 c-21 -14 -32 -42 -12 -29 6 4 7 -5 4 -23 -5 -23 -1 -33
17 -45 47 -34 92 34 50 76 -18 18 -24 20 -41 9 -12 -7 -20 -8 -20 -2 0 15 46
23 68 11 28 -15 36 -46 22 -80 -24 -58 -93 -60 -106 -3 -9 43 -12 49 -13 24
-1 -37 18 -62 61 -81 37 -16 39 -18 22 -31 -16 -14 -17 -13 -11 3 3 9 2 17 -3
17 -6 0 -10 -8 -10 -17 0 -14 -2 -15 -9 -5 -7 11 -9 11 -14 -2 -4 -9 -12 -16
-18 -16 -8 0 -7 6 2 18 13 15 12 16 -4 3 -12 -9 -15 -17 -8 -24 7 -7 14 -7 23
0 7 6 23 9 35 7 22 -4 49 26 36 40 -3 3 3 6 15 6 11 0 24 5 27 10 8 13 -11 13
-38 -1 -21 -11 -21 -10 2 15 16 17 27 22 31 15 5 -7 9 -5 13 6 4 9 3 13 -3 10
-9 -6 -15 42 -12 90 1 13 -1 16 -6 8 -5 -8 -13 -9 -22 -3 -22 14 -53 12 -78
-6z m48 -29 c0 -12 -24 -55 -31 -55 -15 0 -20 20 -9 40 9 17 40 29 40 15z"/>
<path d="M2110 1301 c0 -5 6 -12 13 -14 9 -4 9 -6 0 -6 -7 -1 -10 -7 -7 -15 3
-7 -2 -16 -10 -19 -21 -8 -20 -31 1 -48 10 -8 14 -9 10 -2 -4 6 -3 14 2 18 6
3 8 11 5 18 -2 7 4 18 15 26 17 13 17 15 3 32 -18 20 -32 25 -32 10z"/>
<path d="M2162 1247 c-13 -16 -9 -50 6 -55 7 -2 10 2 6 11 -3 8 -1 18 5 22 13
8 15 35 2 35 -5 0 -13 -6 -19 -13z"/>
<path d="M1335 1199 c-18 -8 -18 -9 5 -8 69 3 81 -12 28 -34 -18 -8 -39 -21
-47 -30 -7 -10 -19 -17 -26 -17 -7 0 -18 -7 -25 -15 -7 -8 -16 -13 -20 -10 -5
3 -12 0 -15 -5 -5 -7 -12 -5 -21 7 -11 14 -13 14 -9 2 4 -9 -6 -28 -22 -46
-15 -16 -35 -38 -43 -48 -14 -16 -13 -17 5 -12 20 7 20 3 17 -165 -3 -146 -6
-177 -23 -209 -12 -25 -24 -36 -33 -33 -8 3 -12 12 -9 20 3 8 10 11 16 7 6 -3
7 -1 3 5 -4 6 -2 21 5 33 8 15 8 19 0 15 -6 -4 -11 -3 -11 3 0 5 5 13 10 16
13 8 13 25 1 25 -5 0 -14 -12 -20 -27 -9 -24 -10 -19 -5 27 3 30 7 67 10 83 3
16 1 27 -5 27 -6 0 -10 -3 -9 -7 1 -5 -1 -38 -5 -76 -5 -44 -4 -74 4 -88 8
-15 8 -24 0 -32 -7 -7 -12 -5 -17 6 -8 23 -24 11 -23 -16 1 -17 2 -18 6 -4 6
22 23 12 23 -14 0 -11 -10 -24 -22 -29 -13 -5 -21 -9 -18 -10 29 -8 40 -6 45
11 4 10 11 19 16 19 14 0 11 -14 -10 -36 -19 -21 -37 -64 -27 -64 3 0 31 38
62 85 l56 86 9 137 c9 163 26 223 76 281 39 47 120 91 166 91 22 0 27 4 27 24
0 15 7 26 18 29 9 3 -14 5 -53 5 -38 0 -79 -4 -90 -9z m-95 -139 c-6 -11 -16
-17 -22 -14 -6 4 -8 3 -5 -4 9 -13 -2 -44 -13 -37 -5 3 -6 -4 -3 -15 3 -11 1
-20 -5 -20 -19 0 -18 34 1 67 10 18 23 31 27 28 5 -3 11 -1 15 5 12 19 16 10
5 -10z"/>
<path d="M1912 1142 c-12 -59 -83 -318 -97 -354 -9 -23 14 -24 41 -3 11 9 13
13 4 10 -11 -4 -15 2 -16 20 -1 14 2 25 8 25 5 0 7 -4 3 -9 -10 -18 13 -21 26
-4 8 10 9 14 2 10 -6 -4 -14 -3 -18 3 -3 5 1 10 9 10 9 0 16 6 17 13 0 6 5 1
10 -12 7 -18 5 -27 -8 -38 -16 -13 -16 -13 4 -3 13 6 41 28 63 49 22 21 43 35
47 32 3 -3 3 -1 0 5 -4 7 -16 14 -27 17 -18 5 -19 3 -9 -9 10 -13 7 -20 -17
-39 -36 -30 -40 -30 -47 -4 -5 20 -7 20 -31 4 -27 -18 -34 -11 -13 16 7 9 18
14 25 12 17 -6 15 14 -3 20 -11 5 -12 12 -4 37 6 16 14 28 18 25 4 -2 8 2 8
10 0 8 -5 12 -10 8 -5 -3 -4 4 2 16 7 11 8 21 4 21 -4 0 -2 5 5 12 7 7 12 27
12 46 0 19 4 31 10 27 15 -9 12 -51 -4 -65 -8 -6 -12 -18 -9 -27 5 -13 8 -12
17 3 6 11 11 21 11 24 0 3 6 15 14 28 9 18 10 27 1 37 -7 8 -9 18 -6 24 3 5 2
20 -3 33 -9 22 -10 22 -12 -7 -2 -30 -2 -30 -8 5 -6 34 -6 33 -19 -28z"/>
<path d="M2181 1176 c-16 -17 -19 -26 -11 -31 9 -5 9 -10 0 -19 -8 -8 -13 -7
-20 4 -5 8 -10 10 -10 4 0 -15 40 -50 41 -36 1 7 2 18 3 25 1 6 -3 18 -8 26
-9 12 -6 13 15 9 22 -4 25 -2 21 19 -2 13 -5 23 -6 23 -2 0 -13 -11 -25 -24z"/>
<path d="M1001 1117 c-12 -37 -14 -244 -3 -287 4 -14 9 52 12 145 3 94 5 171
4 173 -1 2 -7 -12 -13 -31z"/>
<path d="M2036 1111 c-8 -13 20 -33 41 -29 14 3 12 6 -9 20 -15 10 -29 14 -32
9z"/>
<path d="M2014 1064 c5 -12 0 -15 -19 -12 -13 2 -23 0 -22 -3 1 -3 -11 -17
-27 -30 -21 -19 -27 -30 -22 -47 10 -30 36 -17 36 18 0 33 12 44 39 35 27 -8
32 -30 16 -62 -8 -15 -15 -22 -15 -15 0 14 -36 17 -44 3 -3 -4 5 -13 18 -19
19 -8 30 -6 55 9 17 10 34 26 37 34 4 8 9 13 13 11 3 -2 7 8 8 22 1 22 -1 23
-8 9 -12 -21 -39 -23 -39 -2 0 8 6 12 13 9 8 -3 14 1 14 9 0 9 -7 12 -20 9
-17 -4 -19 -1 -15 16 4 16 2 22 -9 22 -10 0 -13 -6 -9 -16z"/>
<path d="M1285 1030 c-10 -11 -22 -17 -26 -14 -9 5 -13 -9 -10 -35 2 -8 -2
-10 -10 -5 -8 4 -10 3 -5 -4 4 -6 0 -25 -9 -41 -8 -17 -15 -40 -14 -53 0 -16
4 -11 13 17 17 53 44 105 69 133 11 12 18 22 15 22 -3 0 -13 -9 -23 -20z"/>
<path d="M1133 960 c2 -8 -2 -22 -9 -31 -12 -13 -11 -18 2 -35 8 -10 13 -14
10 -7 -4 6 -2 22 3 35 6 16 6 30 -1 39 -8 12 -9 12 -5 -1z"/>
<path d="M1336 795 c-9 -25 -7 -32 5 -15 8 12 9 12 7 -5 -1 -11 2 -21 7 -22
11 -2 8 38 -5 50 -4 5 -10 1 -14 -8z"/>
<path d="M1830 759 c-26 -9 -60 -55 -60 -80 0 -15 43 23 72 64 10 15 18 27 16
26 -2 0 -14 -5 -28 -10z"/>
<path d="M955 603 c-9 -38 -21 -90 -26 -118 -5 -27 -14 -72 -19 -98 -6 -27
-10 -63 -9 -80 1 -30 1 -30 8 -7 5 17 9 21 15 12 4 -6 4 -17 0 -24 -4 -7 -3
-8 4 -4 16 10 15 0 -4 -32 l-16 -27 21 25 c11 14 21 28 21 33 0 4 10 7 23 7
17 0 19 2 8 9 -12 7 -8 15 17 40 l31 31 40 -37 c76 -71 135 -194 133 -275 0
-21 4 -38 9 -38 6 0 7 -6 3 -13 -4 -6 -3 -9 1 -5 5 5 9 25 11 45 3 46 -64 191
-125 270 -40 52 -40 52 -21 76 15 19 16 24 4 24 -8 0 -44 -29 -80 -63 -36 -35
-63 -57 -60 -48 3 8 1 12 -4 9 -5 -3 -12 4 -14 17 -7 32 -4 58 5 53 4 -3 5
-15 3 -28 -4 -20 -3 -19 7 3 6 14 10 48 10 75 -1 50 14 155 30 208 4 15 4 27
-1 27 -4 0 -16 -30 -25 -67z"/>
<path d="M1223 574 c-22 -17 -30 -30 -26 -44 8 -29 23 -25 17 5 -4 25 11 36
19 13 2 -7 3 -5 1 5 -1 9 5 21 14 26 9 5 14 12 12 15 -3 3 -20 -6 -37 -20z"/>
<path d="M1250 488 c-37 -40 -85 -104 -63 -85 21 18 41 9 28 -13 -3 -5 1 -10
9 -10 10 0 13 7 10 24 -2 14 2 29 11 36 19 16 34 5 17 -12 -7 -7 -12 -17 -12
-22 0 -6 4 -4 10 4 10 16 13 11 23 -35 3 -11 4 13 2 53 -2 40 -5 75 -8 78 -3
3 -15 -5 -27 -18z m29 -26 c-1 -15 -2 -15 -6 0 -4 15 -8 13 -30 -13 -14 -16
-28 -27 -31 -24 -8 8 50 65 60 59 4 -3 7 -13 7 -22z"/>
<path d="M1188 356 c-10 -7 -18 -20 -18 -27 0 -20 28 -59 42 -59 7 0 5 6 -4
13 -8 6 -18 22 -21 34 -7 31 24 41 42 14 17 -26 31 -27 31 -3 0 38 -39 53 -72
28z"/>
<path d="M1200 306 c0 -16 37 -29 45 -16 3 5 -3 14 -14 19 -26 14 -31 14 -31
-3z"/>
<path d="M1250 271 c-20 -22 -22 -75 -3 -59 10 8 12 7 7 -6 -3 -9 -11 -16 -17
-16 -6 0 -7 -3 -4 -7 4 -3 16 2 27 12 19 17 19 19 3 38 -17 20 -17 20 1 13 15
-5 17 -4 8 7 -9 10 -8 17 0 25 7 7 8 12 3 11 -6 0 -17 -8 -25 -18z"/>
<path d="M1040 239 c25 -11 56 -30 70 -42 13 -12 19 -15 12 -6 -6 9 -10 19 -7
22 3 4 2 5 -1 3 -3 -2 -22 7 -41 20 -20 13 -45 24 -57 23 -14 0 -6 -7 24 -20z"/>
<path d="M935 222 c-15 -16 -29 -41 -30 -58 -2 -16 -1 -23 2 -16 3 6 9 10 14
7 5 -4 6 2 2 11 -4 12 -3 15 5 10 8 -4 10 -2 6 7 -3 8 8 25 26 41 17 14 25 26
17 26 -7 0 -26 -13 -42 -28z"/>
<path d="M965 170 c-4 -6 1 -7 11 -3 12 4 15 3 10 -5 -5 -8 -2 -10 8 -6 29 11
35 -6 11 -32 -14 -15 -29 -23 -36 -19 -8 5 -9 1 -4 -14 3 -11 4 -21 1 -21 -3
0 -10 15 -15 33 -6 21 -10 25 -10 12 -1 -29 26 -65 50 -65 21 0 26 16 7 22 -7
3 -2 7 10 10 14 4 20 2 15 -4 -3 -7 -1 -8 5 -4 6 4 8 14 5 23 -5 12 -3 14 7 8
10 -6 11 -2 6 19 -5 21 -4 26 6 20 7 -4 4 2 -6 14 -20 23 -70 30 -81 12z"/>
<path d="M896 95 c2 -11 4 -38 4 -59 0 -22 3 -37 6 -33 9 8 11 96 3 91 -4 -2
-9 1 -12 8 -2 7 -3 4 -1 -7z"/>
</g>
</svg>
